<svg baseProfile="basic" xmlns="http://www.w3.org/2000/svg" width="92.045" height="113.953" viewBox="0 0 92.045 113.953"><g fill="#3D3D3D"><path d="M9.133 27.876c1.233 0 2.407.249 3.521.746a9.682 9.682 0 0 1 2.925 2 9.73 9.73 0 0 1 2 2.925 8.556 8.556 0 0 1 .746 3.522c0 1.274-.249 2.458-.746 3.552a9.77 9.77 0 0 1-2 2.895 9.262 9.262 0 0 1-2.925 1.97 8.84 8.84 0 0 1-3.521.716c-1.274 0-2.458-.239-3.552-.716a9.325 9.325 0 0 1-2.895-1.97 9.308 9.308 0 0 1-1.97-2.895C.239 39.526 0 38.343 0 37.069c0-1.233.239-2.407.716-3.522a9.262 9.262 0 0 1 1.97-2.925 9.808 9.808 0 0 1 2.895-2c1.094-.497 2.278-.746 3.552-.746zm0 43.755c1.233 0 2.407.249 3.521.746a9.682 9.682 0 0 1 2.925 2 9.73 9.73 0 0 1 2 2.925 8.551 8.551 0 0 1 .746 3.521c0 1.274-.249 2.458-.746 3.552a9.77 9.77 0 0 1-2 2.895 9.246 9.246 0 0 1-2.925 1.97 8.84 8.84 0 0 1-3.521.716c-1.274 0-2.458-.239-3.552-.716a9.308 9.308 0 0 1-2.895-1.97 9.308 9.308 0 0 1-1.97-2.895C.239 83.281 0 82.098 0 80.823c0-1.233.239-2.407.716-3.521a9.251 9.251 0 0 1 1.97-2.925 9.808 9.808 0 0 1 2.895-2c1.094-.497 2.278-.746 3.552-.746zM64.527 0c18.345 16.993 27.518 35.896 27.518 56.708 0 4.298-.438 8.755-1.313 13.371-.876 4.617-2.368 9.342-4.477 14.177-2.11 4.835-4.945 9.739-8.506 14.714-3.562 4.974-8.049 9.969-13.461 14.983l-6.029-6.148c7.76-7.681 13.55-15.699 17.371-24.056 3.82-8.357 5.73-17.111 5.73-26.265 0-18.942-7.701-35.974-23.101-51.097L64.527 0z"/></g></svg>