<?xml version="1.0" encoding="utf-8"?>
<!-- Generator: Adobe Illustrator 16.0.0, SVG Export Plug-In . SVG Version: 6.00 Build 0)  -->
<!DOCTYPE svg PUBLIC "-//W3C//DTD SVG 1.1 Basic//EN" "http://www.w3.org/Graphics/SVG/1.1/DTD/svg11-basic.dtd">
<svg version="1.1" baseProfile="basic" id="Layer_1"
	 xmlns="http://www.w3.org/2000/svg" xmlns:xlink="http://www.w3.org/1999/xlink" x="0px" y="0px" width="92.045px"
	 height="113.953px" viewBox="0 0 92.045 113.953" xml:space="preserve">
<g>
	<path fill="#3D3D3D" d="M9.133,27.876c1.233,0,2.407,0.249,3.521,0.746c1.114,0.498,2.089,1.164,2.925,2
		c0.835,0.836,1.501,1.812,2,2.925c0.497,1.115,0.746,2.289,0.746,3.522c0,1.274-0.249,2.458-0.746,3.552
		c-0.498,1.095-1.164,2.06-2,2.895c-0.836,0.836-1.812,1.492-2.925,1.97c-1.114,0.478-2.289,0.716-3.521,0.716
		c-1.274,0-2.458-0.239-3.552-0.716c-1.095-0.478-2.06-1.134-2.895-1.97c-0.836-0.835-1.493-1.8-1.97-2.895
		C0.239,39.526,0,38.343,0,37.069c0-1.233,0.239-2.407,0.716-3.522c0.478-1.113,1.134-2.089,1.97-2.925
		c0.835-0.835,1.8-1.501,2.895-2C6.675,28.125,7.859,27.876,9.133,27.876z M9.133,71.631c1.233,0,2.407,0.249,3.521,0.746
		c1.114,0.498,2.089,1.164,2.925,2c0.835,0.836,1.501,1.812,2,2.925c0.497,1.114,0.746,2.289,0.746,3.521
		c0,1.274-0.249,2.458-0.746,3.552c-0.498,1.095-1.164,2.06-2,2.895c-0.836,0.836-1.812,1.493-2.925,1.97
		c-1.114,0.478-2.289,0.716-3.521,0.716c-1.274,0-2.458-0.239-3.552-0.716c-1.095-0.477-2.06-1.134-2.895-1.97
		c-0.836-0.835-1.493-1.8-1.97-2.895C0.239,83.281,0,82.098,0,80.823c0-1.233,0.239-2.407,0.716-3.521
		c0.478-1.114,1.134-2.089,1.97-2.925c0.835-0.835,1.8-1.501,2.895-2C6.675,71.88,7.859,71.631,9.133,71.631z"/>
	<path fill="#3D3D3D" d="M64.527,0c18.345,16.993,27.518,35.896,27.518,56.708c0,4.298-0.438,8.755-1.313,13.371
		c-0.876,4.617-2.368,9.342-4.477,14.177c-2.11,4.835-4.945,9.739-8.506,14.714c-3.562,4.974-8.049,9.969-13.461,14.983
		l-6.029-6.148c7.76-7.681,13.55-15.699,17.371-24.056c3.82-8.357,5.73-17.111,5.73-26.265c0-18.942-7.701-35.974-23.101-51.097
		L64.527,0z"/>
</g>
</svg>
