<?xml version="1.0" encoding="utf-8"?>
<!-- Generator: Adobe Illustrator 16.0.0, SVG Export Plug-In . SVG Version: 6.00 Build 0)  -->
<!DOCTYPE svg PUBLIC "-//W3C//DTD SVG 1.1 Basic//EN" "http://www.w3.org/Graphics/SVG/1.1/DTD/svg11-basic.dtd">
<svg version="1.1" baseProfile="basic" id="Layer_1"
	 xmlns="http://www.w3.org/2000/svg" xmlns:xlink="http://www.w3.org/1999/xlink" x="0px" y="0px" width="841.89px"
	 height="595.28px" viewBox="0 0 841.89 595.28" xml:space="preserve">
<g>
	<path d="M233.998,186.854c1.233,0,2.407,0.249,3.521,0.746c1.114,0.498,2.089,1.164,2.925,2c0.835,0.836,1.501,1.812,2,2.925
		c0.497,1.115,0.746,2.289,0.746,3.522c0,1.274-0.249,2.458-0.746,3.552c-0.498,1.095-1.164,2.06-2,2.895
		c-0.836,0.836-1.812,1.492-2.925,1.97c-1.114,0.478-2.289,0.716-3.521,0.716c-1.274,0-2.458-0.239-3.552-0.716
		c-1.095-0.478-2.06-1.134-2.895-1.97c-0.836-0.835-1.493-1.8-1.97-2.895c-0.478-1.094-0.716-2.278-0.716-3.552
		c0-1.233,0.239-2.407,0.716-3.522c0.478-1.113,1.134-2.089,1.97-2.925c0.835-0.835,1.8-1.501,2.895-2
		C231.54,187.103,232.723,186.854,233.998,186.854z M233.998,230.608c1.233,0,2.407,0.249,3.521,0.746
		c1.114,0.498,2.089,1.164,2.925,2c0.835,0.836,1.501,1.812,2,2.925c0.497,1.114,0.746,2.289,0.746,3.521
		c0,1.274-0.249,2.458-0.746,3.552c-0.498,1.095-1.164,2.06-2,2.895c-0.836,0.836-1.812,1.493-2.925,1.97
		c-1.114,0.478-2.289,0.716-3.521,0.716c-1.274,0-2.458-0.239-3.552-0.716c-1.095-0.477-2.06-1.134-2.895-1.97
		c-0.836-0.835-1.493-1.8-1.97-2.895c-0.478-1.094-0.716-2.277-0.716-3.552c0-1.233,0.239-2.407,0.716-3.521
		c0.478-1.114,1.134-2.089,1.97-2.925c0.835-0.835,1.8-1.501,2.895-2C231.54,230.857,232.723,230.608,233.998,230.608z"/>
	<path d="M289.392,158.978c18.345,16.993,27.518,35.896,27.518,56.708c0,4.298-0.438,8.755-1.313,13.371
		c-0.876,4.617-2.368,9.342-4.477,14.177c-2.11,4.835-4.945,9.739-8.506,14.714c-3.562,4.974-8.049,9.969-13.461,14.983
		l-6.029-6.148c7.76-7.681,13.55-15.699,17.371-24.056c3.82-8.357,5.73-17.111,5.73-26.265c0-18.942-7.701-35.974-23.101-51.097
		L289.392,158.978z"/>
</g>
</svg>
