<svg width="18" height="21" viewBox="0 0 18 21" fill="none" xmlns="http://www.w3.org/2000/svg">
<path fill-rule="evenodd" clip-rule="evenodd" d="M1.47663 13.7961C2.79094 11.964 5.11863 10.5859 8.99995 10.5859C12.8813 10.5859 15.209 11.964 16.5233 13.7961C17.7935 15.5669 17.9958 17.5965 17.9999 18.7195C18.004 19.8488 17.0572 20.5859 16.0865 20.5859H1.9134C0.942723 20.5859 -0.00404903 19.8488 1.30242e-05 18.7195C0.00405267 17.5964 0.206371 15.5669 1.47663 13.7961ZM2.00178 18.5859H15.9981C15.9775 17.6339 15.7727 16.1809 14.8982 14.9619C14.0234 13.7425 12.3549 12.5859 8.99995 12.5859C5.64504 12.5859 3.97648 13.7425 3.10173 14.9619C2.22725 16.1809 2.02243 17.6339 2.00178 18.5859Z" fill="#040921"/>
<path fill-rule="evenodd" clip-rule="evenodd" d="M9.00005 6.58594C10.1046 6.58594 11 5.69051 11 4.58594C11 3.48137 10.1046 2.58594 9.00005 2.58594C7.89548 2.58594 7.00005 3.48137 7.00005 4.58594C7.00005 5.69051 7.89548 6.58594 9.00005 6.58594ZM9.00005 8.58594C11.2092 8.58594 13 6.79508 13 4.58594C13 2.3768 11.2092 0.585938 9.00005 0.585938C6.79091 0.585938 5.00005 2.3768 5.00005 4.58594C5.00005 6.79508 6.79091 8.58594 9.00005 8.58594Z" fill="#040921"/>
</svg>
