<svg width="16" height="16" viewBox="0 0 16 16" fill="none" xmlns="http://www.w3.org/2000/svg">
<path d="M11.3335 10.6668C11.7017 10.6668 12.0002 10.3684 12.0002 10.0002C12.0002 9.63197 11.7017 9.3335 11.3335 9.3335C10.9653 9.3335 10.6668 9.63197 10.6668 10.0002C10.6668 10.3684 10.9653 10.6668 11.3335 10.6668Z" fill="#040921"/>
<path fill-rule="evenodd" clip-rule="evenodd" d="M4.00016 2.00016C4.00016 1.63197 4.29864 1.3335 4.66683 1.3335C5.03502 1.3335 5.3335 1.63197 5.3335 2.00016V2.66683H10.6668V2.00016C10.6668 1.63197 10.9653 1.3335 11.3335 1.3335C11.7017 1.3335 12.0002 1.63197 12.0002 2.00016V2.66683H12.6668C13.7714 2.66683 14.6668 3.56226 14.6668 4.66683V11.3335C14.6668 12.4381 13.7714 13.3335 12.6668 13.3335H3.3335C2.22893 13.3335 1.3335 12.4381 1.3335 11.3335V4.66683C1.3335 3.56226 2.22893 2.66683 3.3335 2.66683H4.00016V2.00016ZM10.6668 4.00016V4.66683C10.6668 5.03502 10.9653 5.3335 11.3335 5.3335C11.7017 5.3335 12.0002 5.03502 12.0002 4.66683V4.00016H12.6668C13.035 4.00016 13.3335 4.29864 13.3335 4.66683V6.66683H2.66683V4.66683C2.66683 4.29864 2.96531 4.00016 3.3335 4.00016H4.00016V4.66683C4.00016 5.03502 4.29864 5.3335 4.66683 5.3335C5.03502 5.3335 5.3335 5.03502 5.3335 4.66683V4.00016H10.6668ZM2.66683 8.00016H13.3335V11.3335C13.3335 11.7017 13.035 12.0002 12.6668 12.0002H3.3335C2.96531 12.0002 2.66683 11.7017 2.66683 11.3335V8.00016Z" fill="#040921"/>
</svg>
