<svg width="16" height="17" viewBox="0 0 16 17" fill="none" xmlns="http://www.w3.org/2000/svg">
<path d="M10.8618 7.10998L8.6665 9.30524L8.6665 2.91471C8.6665 2.54652 8.36803 2.24805 7.99984 2.24805C7.63165 2.24805 7.33317 2.54652 7.33317 2.91471V9.30524L5.13791 7.10997C4.87756 6.84963 4.45545 6.84963 4.1951 7.10997C3.93475 7.37032 3.93475 7.79243 4.1951 8.05278L7.52843 11.3861C7.78878 11.6465 8.21089 11.6465 8.47124 11.3861L11.8046 8.05278C12.0649 7.79244 12.0649 7.37032 11.8046 7.10998C11.5442 6.84963 11.1221 6.84963 10.8618 7.10998Z" fill="#040921"/>
<path d="M3.99984 11.5814C3.99984 11.2132 3.70136 10.9147 3.33317 10.9147C2.96498 10.9147 2.6665 11.2132 2.6665 11.5814V13.5814C2.6665 14.6859 3.56193 15.5814 4.6665 15.5814H11.3332C12.4377 15.5814 13.3332 14.6859 13.3332 13.5814V11.5814C13.3332 11.2132 13.0347 10.9147 12.6665 10.9147C12.2983 10.9147 11.9998 11.2132 11.9998 11.5814V13.5814C11.9998 13.9496 11.7014 14.248 11.3332 14.248H4.6665C4.29831 14.248 3.99984 13.9496 3.99984 13.5814V11.5814Z" fill="#040921"/>
</svg>
