<svg width="16" height="16" viewBox="0 0 16 16" fill="none" xmlns="http://www.w3.org/2000/svg">
<path fill-rule="evenodd" clip-rule="evenodd" d="M2 4.00012C2 2.89555 2.89543 2.00012 4 2.00012H7.33333C7.70152 2.00012 8 2.2986 8 2.66679C8 3.03498 7.70152 3.33346 7.33333 3.33346H4C3.63181 3.33346 3.33333 3.63193 3.33333 4.00012V12.0001C3.33333 12.3683 3.63181 12.6668 4 12.6668H12C12.3682 12.6668 12.6667 12.3683 12.6667 12.0001V8.00012C12.6667 7.63193 12.9651 7.33346 13.3333 7.33346C13.7015 7.33346 14 7.63193 14 8.00012V12.0001C14 13.1047 13.1046 14.0001 12 14.0001H4C2.89543 14.0001 2 13.1047 2 12.0001V4.00012Z" fill="#040921"/>
<path d="M11.5429 2.27627C12.0636 1.75557 12.9078 1.75557 13.4285 2.27627C13.9492 2.79697 13.9492 3.64119 13.4285 4.16188L8.71444 8.87593C8.45409 9.13628 8.03198 9.13628 7.77163 8.87593L6.82882 7.93312C6.56847 7.67277 6.56847 7.25066 6.82882 6.99031L11.5429 2.27627Z" fill="#040921"/>
<path d="M5.70474 8.64768C5.55597 8.4989 5.30168 8.4961 5.24215 8.6979L4.80663 10.1742C4.66953 10.6389 5.06523 11.0346 5.52996 10.8975L7.00626 10.462C7.20806 10.4025 7.20526 10.1482 7.05648 9.99942L5.70474 8.64768Z" fill="#040921"/>
</svg>
