<svg width="16" height="16" viewBox="0 0 16 16" fill="none" xmlns="http://www.w3.org/2000/svg">
<path fill-rule="evenodd" clip-rule="evenodd" d="M8.00961 2.00007C8.20188 2.00279 8.3836 2.08839 8.50813 2.2349L14.1748 8.90157C14.3431 9.09956 14.381 9.3773 14.2719 9.61316C14.1629 9.84901 13.9267 10 13.6668 10H12.6668V14C12.6668 14.3682 12.3684 14.6667 12.0002 14.6667H8.66684V11.3333H7.33351V14.6667H4.00018C3.63199 14.6667 3.33351 14.3682 3.33351 14V10H2.00018C1.7369 10 1.49829 9.84506 1.39118 9.60456C1.28407 9.36406 1.32852 9.08305 1.50465 8.88736L7.50465 2.22069C7.63328 2.07777 7.81735 1.99734 8.00961 2.00007ZM3.49708 8.66667H4.66684V13.3333H6.00018V10H10.0002V13.3333H11.3335V8.66667H12.2252L7.98584 3.67916L3.49708 8.66667Z" fill="#040921"/>
</svg>
