<svg width="16" height="16" viewBox="0 0 16 16" fill="none" xmlns="http://www.w3.org/2000/svg">
<path fill-rule="evenodd" clip-rule="evenodd" d="M8.00016 13.3335C10.9457 13.3335 13.3335 10.9457 13.3335 8.00016C13.3335 5.05464 10.9457 2.66683 8.00016 2.66683C5.05464 2.66683 2.66683 5.05464 2.66683 8.00016C2.66683 10.9457 5.05464 13.3335 8.00016 13.3335ZM8.00016 14.6668C11.6821 14.6668 14.6668 11.6821 14.6668 8.00016C14.6668 4.31826 11.6821 1.3335 8.00016 1.3335C4.31826 1.3335 1.3335 4.31826 1.3335 8.00016C1.3335 11.6821 4.31826 14.6668 8.00016 14.6668Z" fill="#040921"/>
<path d="M8.66683 11.3335C8.66683 11.7017 8.36835 12.0002 8.00016 12.0002C7.63197 12.0002 7.3335 11.7017 7.3335 11.3335C7.3335 10.9653 7.63197 10.6668 8.00016 10.6668C8.36835 10.6668 8.66683 10.9653 8.66683 11.3335Z" fill="#040921"/>
<path fill-rule="evenodd" clip-rule="evenodd" d="M6.66681 6.67149C6.66682 6.66837 6.66684 6.66729 6.66681 6.67149V6.67149ZM8.67008 9.11202C8.95889 8.89791 9.3124 8.75607 9.63164 8.59645C10.7181 8.05323 10.8539 6.78637 10.5493 5.87268C10.228 4.90881 9.34418 4.00016 8.00016 4.00016C7.38351 4.00016 6.87669 4.15624 6.47411 4.42463C6.07571 4.69023 5.81842 5.0396 5.65388 5.36869C5.45158 5.77328 5.35238 6.21697 5.3335 6.66683C5.3335 7.03502 5.63197 7.3335 6.00016 7.3335C6.3668 7.3335 6.66431 7.03753 6.66681 6.67149C6.67341 6.42997 6.73892 6.18002 6.84645 5.96497C7.07204 5.51378 7.51075 5.3335 8.00016 5.3335C8.65614 5.3335 9.10566 5.75818 9.28437 6.29431C9.47981 6.88062 9.28225 7.28043 9.03535 7.40388C8.76848 7.53731 8.4998 7.66828 8.2389 7.81322C8.04248 7.92235 7.84824 8.04261 7.69543 8.19542C7.30293 8.58792 7.3335 9.05422 7.3335 9.3335C7.3335 9.70168 7.63197 10.0002 8.00016 10.0002C8.36835 10.0002 8.66683 9.70168 8.66683 9.3335C8.66683 9.21328 8.66798 9.14921 8.67008 9.11202Z" fill="#040921"/>
</svg>
