<svg width="16" height="16" viewBox="0 0 16 16" fill="none" xmlns="http://www.w3.org/2000/svg">
<path fill-rule="evenodd" clip-rule="evenodd" d="M3.3335 4.66683C3.3335 3.93045 3.93045 3.3335 4.66683 3.3335H6.00016C6.73654 3.3335 7.3335 3.93045 7.3335 4.66683V11.3335C7.3335 12.0699 6.73654 12.6668 6.00016 12.6668H4.66683C3.93045 12.6668 3.3335 12.0699 3.3335 11.3335V4.66683Z" fill="#040921"/>
<path fill-rule="evenodd" clip-rule="evenodd" d="M8.66683 4.66683C8.66683 3.93045 9.26378 3.3335 10.0002 3.3335H11.3335C12.0699 3.3335 12.6668 3.93045 12.6668 4.66683V11.3335C12.6668 12.0699 12.0699 12.6668 11.3335 12.6668H10.0002C9.26378 12.6668 8.66683 12.0699 8.66683 11.3335V4.66683Z" fill="#040921"/>
</svg>
