<svg width="17" height="16" viewBox="0 0 17 16" fill="none" xmlns="http://www.w3.org/2000/svg">
<path fill-rule="evenodd" clip-rule="evenodd" d="M8.77103 3.33333H3.32389C2.9557 3.33333 2.65723 3.63181 2.65723 4C2.65723 4.36819 2.9557 4.66667 3.32389 4.66667H8.77103C9.04559 5.44346 9.78641 6 10.6572 6C11.528 6 12.2689 5.44346 12.5434 4.66667H13.9906C14.3587 4.66667 14.6572 4.36819 14.6572 4C14.6572 3.63181 14.3587 3.33333 13.9906 3.33333H12.5434C12.2689 2.55654 11.528 2 10.6572 2C9.78641 2 9.04559 2.55654 8.77103 3.33333ZM9.99056 4C9.99056 3.63181 10.289 3.33333 10.6572 3.33333C11.0254 3.33333 11.3239 3.63181 11.3239 4C11.3239 4.36819 11.0254 4.66667 10.6572 4.66667C10.289 4.66667 9.99056 4.36819 9.99056 4Z" fill="#040921"/>
<path fill-rule="evenodd" clip-rule="evenodd" d="M5.99056 6C6.86137 6 7.6022 6.55654 7.87676 7.33333H13.9906C14.3587 7.33333 14.6572 7.63181 14.6572 8C14.6572 8.36819 14.3587 8.66667 13.9906 8.66667H7.87676C7.6022 9.44346 6.86137 10 5.99056 10C5.11975 10 4.37892 9.44346 4.10436 8.66667H3.32389C2.9557 8.66667 2.65723 8.36819 2.65723 8C2.65723 7.63181 2.9557 7.33333 3.32389 7.33333H4.10436C4.37892 6.55654 5.11975 6 5.99056 6ZM5.99056 7.33333C6.35875 7.33333 6.65723 7.63181 6.65723 8C6.65723 8.36819 6.35875 8.66667 5.99056 8.66667C5.62237 8.66667 5.32389 8.36819 5.32389 8C5.32389 7.63181 5.62237 7.33333 5.99056 7.33333Z" fill="#040921"/>
<path fill-rule="evenodd" clip-rule="evenodd" d="M3.32389 11.3333C2.9557 11.3333 2.65723 11.6318 2.65723 12C2.65723 12.3682 2.9557 12.6667 3.32389 12.6667H10.1044C10.3789 13.4435 11.1197 14 11.9906 14C12.8614 14 13.6022 13.4435 13.8768 12.6667H13.9906C14.3587 12.6667 14.6572 12.3682 14.6572 12C14.6572 11.6318 14.3587 11.3333 13.9906 11.3333H13.8768C13.6022 10.5565 12.8614 10 11.9906 10C11.1197 10 10.3789 10.5565 10.1044 11.3333H3.32389ZM12.6572 12C12.6572 11.6318 12.3587 11.3333 11.9906 11.3333C11.6224 11.3333 11.3239 11.6318 11.3239 12C11.3239 12.3682 11.6224 12.6667 11.9906 12.6667C12.3587 12.6667 12.6572 12.3682 12.6572 12Z" fill="#040921"/>
</svg>
