<svg width="16" height="16" viewBox="0 0 16 16" fill="none" xmlns="http://www.w3.org/2000/svg">
<path fill-rule="evenodd" clip-rule="evenodd" d="M8.00016 13.3335C10.9457 13.3335 13.3335 10.9457 13.3335 8.00016C13.3335 5.05464 10.9457 2.66683 8.00016 2.66683C5.05464 2.66683 2.66683 5.05464 2.66683 8.00016C2.66683 10.9457 5.05464 13.3335 8.00016 13.3335ZM8.00016 14.6668C11.6821 14.6668 14.6668 11.6821 14.6668 8.00016C14.6668 4.31826 11.6821 1.3335 8.00016 1.3335C4.31826 1.3335 1.3335 4.31826 1.3335 8.00016C1.3335 11.6821 4.31826 14.6668 8.00016 14.6668Z" fill="#040921"/>
<path d="M8.66683 8.00016C8.66683 8.36835 8.36835 8.66683 8.00016 8.66683C7.63197 8.66683 7.3335 8.36835 7.3335 8.00016V5.3335C7.3335 4.96531 7.63197 4.66683 8.00016 4.66683C8.36835 4.66683 8.66683 4.96531 8.66683 5.3335V8.00016Z" fill="#040921"/>
<path d="M7.3335 10.6668C7.3335 10.2986 7.63197 10.0002 8.00016 10.0002C8.36835 10.0002 8.66683 10.2986 8.66683 10.6668C8.66683 11.035 8.36835 11.3335 8.00016 11.3335C7.63197 11.3335 7.3335 11.035 7.3335 10.6668Z" fill="#040921"/>
</svg>
