<?xml version="1.0" encoding="UTF-8" standalone="no"?>
<!DOCTYPE svg PUBLIC "-//W3C//DTD SVG 1.1//EN" "http://www.w3.org/Graphics/SVG/1.1/DTD/svg11.dtd">
<svg width="100%" height="100%" viewBox="0 0 9685 12356" version="1.1" xmlns="http://www.w3.org/2000/svg" xmlns:xlink="http://www.w3.org/1999/xlink" xml:space="preserve" xmlns:serif="http://www.serif.com/" style="fill-rule:evenodd;clip-rule:evenodd;stroke-linejoin:round;stroke-miterlimit:2;">
    <g transform="matrix(4.16667,0,0,4.16667,-1406.26,-0.00935779)">
        <g transform="matrix(1,0,0,1,-307.143,-500.098)">
            <g>
                <g transform="matrix(4.16667,0,0,4.16667,469.274,67.7624)">
                    <path d="M63.195,489.233C49.595,456.399 42.089,420.412 42.089,382.685C42.089,228.743 167.071,103.761 321.013,103.761C474.955,103.761 599.937,228.743 599.937,382.685C599.937,426.552 589.788,468.067 571.713,505.009L388.738,269.227L308.058,474.18L287.916,202.949L276.786,216.898C276.786,216.898 161.56,361.303 63.195,489.233Z" style="fill:rgb(18,42,52);"/>
                    <path d="M564.57,518.64C516.831,603.914 425.607,661.609 321.013,661.609C210.432,661.609 114.795,597.12 69.692,503.731C150.698,398.235 244.815,279.568 276.6,239.605L296.366,505.777L298.636,536.338L392.756,297.241L564.57,518.64Z" style="fill:rgb(18,42,52);"/>
                    <g>
                        <clipPath id="_clip1">
                            <circle cx="321.013" cy="382.685" r="278.924"/>
                        </clipPath>
                        <g clip-path="url(#_clip1)">
                            <g transform="matrix(1,0,0,1,57.696,95.982)">
                                <path d="M11.996,407.749C9.697,402.99 7.53,398.156 5.499,393.251C103.864,265.321 219.09,120.916 219.09,120.916L230.22,106.967L250.362,378.198L331.042,173.245L514.017,409.027C511.758,413.644 509.376,418.189 506.874,422.658L335.06,201.259L240.94,440.356L238.67,409.795L218.904,143.623C187.119,183.586 93.002,302.253 11.996,407.749Z" style="fill:white;"/>
                            </g>
                        </g>
                    </g>
                </g>
                <g transform="matrix(4.16667,0,0,4.16667,-1247.61,886.939)">
                    <path d="M801.169,59.603C811.16,59.603 819.272,67.715 819.272,77.706C819.272,87.697 811.16,95.809 801.169,95.809C791.178,95.809 783.066,87.697 783.066,77.706C783.066,67.715 791.178,59.603 801.169,59.603ZM801.169,67.603C795.593,67.603 791.066,72.13 791.066,77.706C791.066,83.282 795.593,87.809 801.169,87.809C806.745,87.809 811.272,83.282 811.272,77.706C811.272,72.13 806.745,67.603 801.169,67.603Z" style="fill:rgb(0,255,54);"/>
                </g>
                <g transform="matrix(4.16667,0,0,4.16667,-1677.93,607.155)">
                    <path d="M801.169,59.603C811.16,59.603 819.272,67.715 819.272,77.706C819.272,87.697 811.16,95.809 801.169,95.809C791.178,95.809 783.066,87.697 783.066,77.706C783.066,67.715 791.178,59.603 801.169,59.603ZM801.169,67.603C795.593,67.603 791.066,72.13 791.066,77.706C791.066,83.282 795.593,87.809 801.169,87.809C806.745,87.809 811.272,83.282 811.272,77.706C811.272,72.13 806.745,67.603 801.169,67.603Z" style="fill:rgb(255,137,0);"/>
                </g>
                <g transform="matrix(4.16667,0,0,4.16667,-1623.33,1946.85)">
                    <path d="M801.169,59.603C811.16,59.603 819.272,67.715 819.272,77.706C819.272,87.697 811.16,95.809 801.169,95.809C791.178,95.809 783.066,87.697 783.066,77.706C783.066,67.715 791.178,59.603 801.169,59.603ZM801.169,67.603C795.593,67.603 791.066,72.13 791.066,77.706C791.066,83.282 795.593,87.809 801.169,87.809C806.745,87.809 811.272,83.282 811.272,77.706C811.272,72.13 806.745,67.603 801.169,67.603Z" style="fill:rgb(255,0,79);"/>
                </g>
            </g>
            <g transform="matrix(2.17085,0,0,2.17085,-1341.02,-2291.93)">
                <path d="M1058.81,2447.38C1061.11,2447.38 1063.51,2447.96 1066.01,2449.11C1068.5,2450.26 1070.42,2451.89 1071.77,2454.01L1144.92,2565.46L1132.53,2564.89L1207.13,2454.01C1210.2,2449.59 1214.13,2447.38 1218.93,2447.38C1222.77,2447.38 1226.18,2448.78 1229.16,2451.56C1232.13,2454.34 1233.62,2457.85 1233.62,2462.07L1233.62,2634.58C1233.62,2638.81 1232.28,2642.31 1229.59,2645.1C1226.9,2647.88 1223.35,2649.27 1218.93,2649.27C1214.33,2649.27 1210.63,2647.88 1207.85,2645.1C1205.06,2642.31 1203.67,2638.81 1203.67,2634.58L1203.67,2488.57L1212.89,2490.58L1149.53,2587.06C1148.18,2588.79 1146.45,2590.28 1144.34,2591.53C1142.23,2592.78 1140.02,2593.3 1137.72,2593.11C1135.61,2593.3 1133.45,2592.78 1131.24,2591.53C1129.03,2590.28 1127.25,2588.79 1125.91,2587.06L1064.85,2492.02L1071.77,2480.5L1071.77,2634.58C1071.77,2638.81 1070.47,2642.31 1067.88,2645.1C1065.29,2647.88 1061.88,2649.27 1057.65,2649.27C1053.62,2649.27 1050.31,2647.88 1047.72,2645.1C1045.13,2642.31 1043.83,2638.81 1043.83,2634.58L1043.83,2462.07C1043.83,2458.04 1045.32,2454.58 1048.29,2451.7C1051.27,2448.82 1054.77,2447.38 1058.81,2447.38Z" style="fill-rule:nonzero;"/>
                <path d="M1347.96,2652.15C1332.02,2652.15 1318.2,2648.84 1306.49,2642.22C1294.77,2635.59 1285.7,2626.47 1279.27,2614.86C1272.84,2603.24 1269.62,2589.94 1269.62,2574.97C1269.62,2558.07 1273.03,2543.62 1279.85,2531.62C1286.66,2519.62 1295.54,2510.41 1306.49,2503.97C1317.43,2497.54 1329.05,2494.33 1341.33,2494.33C1350.74,2494.33 1359.67,2496.2 1368.12,2499.94C1376.57,2503.69 1384.1,2508.87 1390.73,2515.49C1397.35,2522.12 1402.58,2529.89 1406.42,2538.82C1410.26,2547.75 1412.28,2557.49 1412.47,2568.05C1412.28,2571.89 1410.74,2575.06 1407.86,2577.56C1404.98,2580.05 1401.62,2581.3 1397.78,2581.3L1285.75,2581.3L1278.84,2556.82L1387.13,2556.82L1381.65,2562.01L1381.65,2554.81C1381.27,2548.09 1379.06,2542.18 1375.03,2537.1C1371,2532.01 1366.01,2528.07 1360.05,2525.29C1354.1,2522.5 1347.86,2521.11 1341.33,2521.11C1335.57,2521.11 1330.05,2522.02 1324.77,2523.85C1319.49,2525.67 1314.79,2528.6 1310.66,2532.63C1306.53,2536.66 1303.27,2541.99 1300.87,2548.62C1298.47,2555.24 1297.27,2563.45 1297.27,2573.24C1297.27,2583.8 1299.48,2593.01 1303.89,2600.89C1308.31,2608.76 1314.26,2614.86 1321.75,2619.18C1329.24,2623.49 1337.49,2625.66 1346.52,2625.66C1353.62,2625.66 1359.48,2624.93 1364.09,2623.49C1368.69,2622.05 1372.53,2620.28 1375.61,2618.17C1378.68,2616.05 1381.37,2614.04 1383.67,2612.12C1386.55,2610.39 1389.43,2609.53 1392.31,2609.53C1395.77,2609.53 1398.65,2610.73 1400.95,2613.13C1403.25,2615.53 1404.41,2618.36 1404.41,2621.62C1404.41,2625.85 1402.29,2629.69 1398.07,2633.14C1392.89,2638.14 1385.73,2642.55 1376.61,2646.39C1367.49,2650.23 1357.94,2652.15 1347.96,2652.15Z" style="fill-rule:nonzero;"/>
                <path d="M1443,2499.51L1510.68,2499.51C1514.52,2499.51 1517.73,2500.81 1520.33,2503.4C1522.92,2505.99 1524.21,2509.21 1524.21,2513.05C1524.21,2516.7 1522.92,2519.77 1520.33,2522.26C1517.73,2524.76 1514.52,2526.01 1510.68,2526.01L1443,2526.01C1439.16,2526.01 1435.94,2524.71 1433.35,2522.12C1430.76,2519.53 1429.46,2516.41 1429.46,2512.76C1429.46,2508.92 1430.76,2505.75 1433.35,2503.26C1435.94,2500.76 1439.16,2499.51 1443,2499.51ZM1473.24,2462.07C1477.46,2462.07 1480.92,2463.46 1483.61,2466.25C1486.29,2469.03 1487.64,2472.53 1487.64,2476.76L1487.64,2610.39C1487.64,2613.85 1488.21,2616.63 1489.37,2618.74C1490.52,2620.86 1492.1,2622.3 1494.12,2623.06C1496.13,2623.83 1498.2,2624.22 1500.31,2624.22C1502.42,2624.22 1504.29,2623.83 1505.93,2623.06C1507.56,2622.3 1509.53,2621.91 1511.83,2621.91C1514.13,2621.91 1516.25,2622.97 1518.17,2625.08C1520.09,2627.19 1521.05,2630.07 1521.05,2633.72C1521.05,2638.33 1518.55,2642.07 1513.56,2644.95C1508.57,2647.83 1503.19,2649.27 1497.43,2649.27C1494.17,2649.27 1490.33,2648.98 1485.91,2648.41C1481.49,2647.83 1477.22,2646.39 1473.09,2644.09C1468.97,2641.78 1465.56,2638.09 1462.87,2633C1460.18,2627.91 1458.84,2620.76 1458.84,2611.54L1458.84,2476.76C1458.84,2472.53 1460.23,2469.03 1463.01,2466.25C1465.8,2463.46 1469.21,2462.07 1473.24,2462.07Z" style="fill-rule:nonzero;"/>
                <path d="M1570.58,2649.27C1566.36,2649.27 1562.9,2647.88 1560.21,2645.1C1557.53,2642.31 1556.18,2638.81 1556.18,2634.58L1556.18,2512.47C1556.18,2508.25 1557.53,2504.74 1560.21,2501.96C1562.9,2499.18 1566.36,2497.78 1570.58,2497.78C1574.61,2497.78 1578.02,2499.18 1580.81,2501.96C1583.59,2504.74 1584.98,2508.25 1584.98,2512.47L1584.98,2544.73L1582.1,2532.34C1583.64,2526.97 1585.99,2521.97 1589.16,2517.37C1592.33,2512.76 1596.12,2508.73 1600.53,2505.27C1604.95,2501.82 1609.89,2499.13 1615.37,2497.21C1620.84,2495.29 1626.55,2494.33 1632.5,2494.33C1637.49,2494.33 1641.81,2495.67 1645.46,2498.36C1649.11,2501.05 1650.93,2504.41 1650.93,2508.44C1650.93,2513.62 1649.59,2517.41 1646.9,2519.82C1644.21,2522.22 1641.24,2523.41 1637.97,2523.41C1635.09,2523.41 1632.31,2522.79 1629.62,2521.54C1626.93,2520.3 1623.77,2519.67 1620.12,2519.67C1616.09,2519.67 1611.96,2520.73 1607.73,2522.84C1603.51,2524.95 1599.67,2528.07 1596.21,2532.2C1592.76,2536.33 1590.02,2541.18 1588.01,2546.74C1585.99,2552.31 1584.98,2558.55 1584.98,2565.46L1584.98,2634.58C1584.98,2638.81 1583.59,2642.31 1580.81,2645.1C1578.02,2647.88 1574.61,2649.27 1570.58,2649.27Z" style="fill-rule:nonzero;"/>
                <path d="M1703.64,2634.58C1703.64,2638.81 1702.29,2642.31 1699.61,2645.1C1696.92,2647.88 1693.46,2649.27 1689.24,2649.27C1685.21,2649.27 1681.8,2647.88 1679.01,2645.1C1676.23,2642.31 1674.84,2638.81 1674.84,2634.58L1674.84,2511.32C1674.84,2507.1 1676.23,2503.59 1679.01,2500.81C1681.8,2498.02 1685.21,2496.63 1689.24,2496.63C1693.46,2496.63 1696.92,2498.02 1699.61,2500.81C1702.29,2503.59 1703.64,2507.1 1703.64,2511.32L1703.64,2634.58ZM1688.95,2477.62C1683.38,2477.62 1679.35,2476.62 1676.85,2474.6C1674.36,2472.58 1673.11,2469.18 1673.11,2464.38L1673.11,2459.77C1673.11,2454.97 1674.45,2451.61 1677.14,2449.69C1679.83,2447.77 1683.86,2446.81 1689.24,2446.81C1695,2446.81 1699.13,2447.82 1701.62,2449.83C1704.12,2451.85 1705.37,2455.16 1705.37,2459.77L1705.37,2464.38C1705.37,2469.37 1704.07,2472.82 1701.48,2474.74C1698.89,2476.66 1694.71,2477.62 1688.95,2477.62Z" style="fill-rule:nonzero;"/>
                <path d="M1743.09,2496.92C1747.89,2496.92 1751.83,2498.93 1754.9,2502.97L1853.11,2626.81C1855.22,2629.3 1856.28,2632.18 1856.28,2635.45C1856.28,2639.29 1854.74,2642.65 1851.67,2645.53C1848.6,2648.41 1845.24,2649.85 1841.59,2649.85C1836.98,2649.85 1833.05,2647.83 1829.78,2643.8L1731.57,2519.96C1729.46,2517.46 1728.41,2514.58 1728.41,2511.32C1728.41,2507.29 1729.89,2503.88 1732.87,2501.1C1735.85,2498.31 1739.25,2496.92 1743.09,2496.92ZM1743.38,2649.85C1740.12,2649.85 1736.95,2648.6 1733.88,2646.1C1730.81,2643.61 1729.27,2640.53 1729.27,2636.89C1729.27,2633.62 1730.42,2630.65 1732.73,2627.96L1778.52,2571.22L1793.21,2594.84L1754.9,2643.8C1751.83,2647.83 1747.99,2649.85 1743.38,2649.85ZM1841.3,2496.92C1845.33,2496.92 1848.65,2498.22 1851.24,2500.81C1853.83,2503.4 1855.13,2506.42 1855.13,2509.88C1855.13,2511.41 1854.89,2513 1854.41,2514.63C1853.93,2516.26 1853.01,2517.75 1851.67,2519.1L1806.45,2575.83L1791.48,2554.52L1829.78,2503.54C1833.05,2499.13 1836.89,2496.92 1841.3,2496.92Z" style="fill-rule:nonzero;"/>
            </g>
        </g>
    </g>
</svg>
